<svg width="1600" height="735" xmlns="http://www.w3.org/2000/svg"><g><path d="M-76,-30L-128,357L-105,202Z" fill="#c15a46" stroke="#c15a46"/><path d="M-76,-30L-105,202L-39,106Z" fill="#c62b30" stroke="#c62b30"/><path d="M-76,-30L-39,106L47,25Z" fill="#c00f2a" stroke="#c00f2a"/><path d="M-76,-30L47,25L48,-53Z" fill="#ae012a" stroke="#ae012a"/><path d="M48,-53L47,25L206,-46Z" fill="#bc112a" stroke="#bc112a"/><path d="M48,-53L206,-46L635,-106Z" fill="#bf3838" stroke="#bf3838"/><path d="M206,-46L47,25L194,98Z" fill="#da242b" stroke="#da242b"/><path d="M206,-46L194,98L318,125Z" fill="#f14534" stroke="#f14534"/><path d="M206,-46L318,125L379,-18Z" fill="#e64239" stroke="#e64239"/><path d="M206,-46L379,-18L635,-106Z" fill="#c85144" stroke="#c85144"/><path d="M379,-18L318,125L473,-24Z" fill="#ec5942" stroke="#ec5942"/><path d="M379,-18L473,-24L635,-106Z" fill="#cc614f" stroke="#cc614f"/><path d="M473,-24L318,125L566,39Z" fill="#f66e4a" stroke="#f66e4a"/><path d="M473,-24L566,39L635,-106Z" fill="#d56c59" stroke="#d56c59"/><path d="M635,-106L566,39L696,94Z" fill="#e67a65" stroke="#e67a65"/><path d="M635,-106L696,94L852,-83Z" fill="#d58076" stroke="#d58076"/><path d="M635,-106L852,-83L1705,-94Z" fill="#83684a" stroke="#83684a"/><path d="M852,-83L696,94L796,93Z" fill="#ea8c6d" stroke="#ea8c6d"/><path d="M852,-83L796,93L933,65Z" fill="#dc835e" stroke="#dc835e"/><path d="M852,-83L933,65L932,-73Z" fill="#bc7559" stroke="#bc7559"/><path d="M852,-83L932,-73L1169,-64Z" fill="#9c6f4f" stroke="#9c6f4f"/><path d="M852,-83L1169,-64L1705,-94Z" fill="#5e5543" stroke="#5e5543"/><path d="M932,-73L933,65L1160,60Z" fill="#bf754d" stroke="#bf754d"/><path d="M932,-73L1160,60L1169,-64Z" fill="#9c664a" stroke="#9c664a"/><path d="M1169,-64L1160,60L1273,-62Z" fill="#835a46" stroke="#835a46"/><path d="M1169,-64L1273,-62L1705,-94Z" fill="#494038" stroke="#494038"/><path d="M1273,-62L1160,60L1312,82Z" fill="#8b5f43" stroke="#8b5f43"/><path d="M1273,-62L1312,82L1450,-55Z" fill="#68463c" stroke="#68463c"/><path d="M1273,-62L1450,-55L1705,-94Z" fill="#443130" stroke="#443130"/><path d="M1450,-55L1312,82L1375,116Z" fill="#7e5539" stroke="#7e5539"/><path d="M1450,-55L1375,116L1599,72Z" fill="#764431" stroke="#764431"/><path d="M1450,-55L1599,72L1635,-53Z" fill="#5e2329" stroke="#5e2329"/><path d="M1450,-55L1635,-53L1705,-94Z" fill="#461d26" stroke="#461d26"/><path d="M1635,-53L1599,72L1724,19Z" fill="#681921" stroke="#681921"/><path d="M1635,-53L1724,19L1705,-94Z" fill="#500e1e" stroke="#500e1e"/><path d="M-39,106L-105,202L117,165Z" fill="#d14f42" stroke="#d14f42"/><path d="M-39,106L117,165L47,25Z" fill="#d93532" stroke="#d93532"/><path d="M47,25L117,165L194,98Z" fill="#e74032" stroke="#e74032"/><path d="M194,98L117,165L236,269Z" fill="#ef7a4b" stroke="#ef7a4b"/><path d="M194,98L236,269L318,125Z" fill="#f6814e" stroke="#f6814e"/><path d="M318,125L236,269L416,280Z" fill="#fbae68" stroke="#fbae68"/><path d="M318,125L416,280L581,174Z" fill="#febb69" stroke="#febb69"/><path d="M318,125L581,174L566,39Z" fill="#fe965b" stroke="#fe965b"/><path d="M566,39L581,174L696,94Z" fill="#ffa46c" stroke="#ffa46c"/><path d="M696,94L581,174L694,262Z" fill="#ffd287" stroke="#ffd287"/><path d="M696,94L694,262L807,215Z" fill="#ffe196" stroke="#ffe196"/><path d="M696,94L807,215L796,93Z" fill="#fabf81" stroke="#fabf81"/><path d="M796,93L807,215L933,65Z" fill="#f0b570" stroke="#f0b570"/><path d="M933,65L807,215L968,268Z" fill="#e7d377" stroke="#e7d377"/><path d="M933,65L968,268L1116,224Z" fill="#d5cd6c" stroke="#d5cd6c"/><path d="M933,65L1116,224L1160,60Z" fill="#c79f58" stroke="#c79f58"/><path d="M1160,60L1116,224L1233,201Z" fill="#b1af61" stroke="#b1af61"/><path d="M1160,60L1233,201L1312,82Z" fill="#a08c50" stroke="#a08c50"/><path d="M1312,82L1233,201L1375,116Z" fill="#8d8d50" stroke="#8d8d50"/><path d="M1375,116L1233,201L1473,277Z" fill="#88aa5d" stroke="#88aa5d"/><path d="M1375,116L1473,277L1537,173Z" fill="#809452" stroke="#809452"/><path d="M1375,116L1537,173L1599,72Z" fill="#80663c" stroke="#80663c"/><path d="M1599,72L1537,173L1721,262Z" fill="#806f3f" stroke="#806f3f"/><path d="M1599,72L1721,262L1724,19Z" fill="#80472c" stroke="#80472c"/><path d="M1724,19L1721,262L1748,478Z" fill="#808151" stroke="#808151"/><path d="M-105,202L-128,357L47,427Z" fill="#c88083" stroke="#c88083"/><path d="M-105,202L47,427L117,165Z" fill="#d68265" stroke="#d68265"/><path d="M117,165L47,427L236,269Z" fill="#e99670" stroke="#e99670"/><path d="M236,269L47,427L249,386Z" fill="#ee9e7c" stroke="#ee9e7c"/><path d="M236,269L249,386L416,280Z" fill="#fab88a" stroke="#fab88a"/><path d="M416,280L249,386L362,429Z" fill="#fbc28b" stroke="#fbc28b"/><path d="M416,280L362,429L535,419Z" fill="#fed78f" stroke="#fed78f"/><path d="M416,280L535,419L581,174Z" fill="#ffe499" stroke="#ffe499"/><path d="M581,174L535,419L694,262Z" fill="#fff2a5" stroke="#fff2a5"/><path d="M694,262L535,419L705,326Z" fill="#fff6c2" stroke="#fff6c2"/><path d="M694,262L705,326L807,215Z" fill="#feffb1" stroke="#feffb1"/><path d="M807,215L705,326L830,401Z" fill="#f8fcbf" stroke="#f8fcbf"/><path d="M807,215L830,401L968,268Z" fill="#edf7a6" stroke="#edf7a6"/><path d="M968,268L830,401L1010,428Z" fill="#e1f2a2" stroke="#e1f2a2"/><path d="M968,268L1010,428L1098,355Z" fill="#d1eca0" stroke="#d1eca0"/><path d="M968,268L1098,355L1116,224Z" fill="#c9e88e" stroke="#c9e88e"/><path d="M1116,224L1098,355L1233,201Z" fill="#b6dd82" stroke="#b6dd82"/><path d="M1233,201L1098,355L1279,390Z" fill="#a8d999" stroke="#a8d999"/><path d="M1233,201L1279,390L1473,277Z" fill="#8bc984" stroke="#8bc984"/><path d="M1473,277L1279,390L1470,328Z" fill="#84bc91" stroke="#84bc91"/><path d="M1473,277L1470,328L1546,356Z" fill="#80ad84" stroke="#80ad84"/><path d="M1473,277L1546,356L1537,173Z" fill="#80a96a" stroke="#80a96a"/><path d="M1537,173L1546,356L1721,262Z" fill="#809a61" stroke="#809a61"/><path d="M1721,262L1546,356L1717,420Z" fill="#809276" stroke="#809276"/><path d="M1721,262L1717,420L1748,478Z" fill="#80875e" stroke="#80875e"/><path d="M-128,357L-128,812L-109,648Z" fill="#4e5941" stroke="#4e5941"/><path d="M-128,357L-109,648L-104,517Z" fill="#8b774f" stroke="#8b774f"/><path d="M-128,357L-104,517L47,427Z" fill="#ba805c" stroke="#ba805c"/><path d="M47,427L-104,517L125,558Z" fill="#a77c50" stroke="#a77c50"/><path d="M47,427L125,558L249,386Z" fill="#d29756" stroke="#d29756"/><path d="M249,386L125,558L199,578Z" fill="#bc9855" stroke="#bc9855"/><path d="M249,386L199,578L360,499Z" fill="#d0ad5e" stroke="#d0ad5e"/><path d="M249,386L360,499L362,429Z" fill="#ebbe6d" stroke="#ebbe6d"/><path d="M362,429L360,499L529,488Z" fill="#dfd16d" stroke="#dfd16d"/><path d="M362,429L529,488L535,419Z" fill="#ebdd7c" stroke="#ebdd7c"/><path d="M535,419L529,488L712,504Z" fill="#e1f087" stroke="#e1f087"/><path d="M535,419L712,504L705,326Z" fill="#f8f7a1" stroke="#f8f7a1"/><path d="M705,326L712,504L830,401Z" fill="#f8feac" stroke="#f8feac"/><path d="M830,401L712,504L827,530Z" fill="#d5f993" stroke="#d5f993"/><path d="M830,401L827,530L936,544Z" fill="#c3f285" stroke="#c3f285"/><path d="M830,401L936,544L1010,428Z" fill="#cbf382" stroke="#cbf382"/><path d="M1010,428L936,544L1145,527Z" fill="#a1e472" stroke="#a1e472"/><path d="M1010,428L1145,527L1098,355Z" fill="#b5e67c" stroke="#b5e67c"/><path d="M1098,355L1145,527L1279,390Z" fill="#a6dd7d" stroke="#a6dd7d"/><path d="M1279,390L1145,527L1308,572Z" fill="#71ce6a" stroke="#71ce6a"/><path d="M1279,390L1308,572L1443,493Z" fill="#63c263" stroke="#63c263"/><path d="M1279,390L1443,493L1470,328Z" fill="#84bd73" stroke="#84bd73"/><path d="M1470,328L1443,493L1546,356Z" fill="#80af70" stroke="#80af70"/><path d="M1546,356L1443,493L1543,548Z" fill="#64aa56" stroke="#64aa56"/><path d="M1546,356L1543,548L1717,420Z" fill="#6f9b56" stroke="#6f9b56"/><path d="M1717,420L1543,548L1748,478Z" fill="#5b8d47" stroke="#5b8d47"/><path d="M-104,517L-109,648L90,676Z" fill="#5a5640" stroke="#5a5640"/><path d="M-104,517L90,676L125,558Z" fill="#766746" stroke="#766746"/><path d="M125,558L90,676L199,578Z" fill="#7b7143" stroke="#7b7143"/><path d="M199,578L90,676L237,735Z" fill="#705f38" stroke="#705f38"/><path d="M199,578L237,735L332,714Z" fill="#776a3d" stroke="#776a3d"/><path d="M199,578L332,714L360,499Z" fill="#8f9453" stroke="#8f9453"/><path d="M360,499L332,714L548,733Z" fill="#839953" stroke="#839953"/><path d="M360,499L548,733L529,488Z" fill="#a2c26b" stroke="#a2c26b"/><path d="M529,488L548,733L653,690Z" fill="#87bb6d" stroke="#87bb6d"/><path d="M529,488L653,690L712,504Z" fill="#abde85" stroke="#abde85"/><path d="M712,504L653,690L827,530Z" fill="#a2e393" stroke="#a2e393"/><path d="M827,530L653,690L816,724Z" fill="#80c47e" stroke="#80c47e"/><path d="M827,530L816,724L936,544Z" fill="#81d378" stroke="#81d378"/><path d="M936,544L816,724L968,701Z" fill="#6ab865" stroke="#6ab865"/><path d="M936,544L968,701L1090,633Z" fill="#62be62" stroke="#62be62"/><path d="M936,544L1090,633L1145,527Z" fill="#72cf69" stroke="#72cf69"/><path d="M1145,527L1090,633L1242,634Z" fill="#48bb62" stroke="#48bb62"/><path d="M1145,527L1242,634L1308,572Z" fill="#42b961" stroke="#42b961"/><path d="M1308,572L1242,634L1424,655Z" fill="#189c52" stroke="#189c52"/><path d="M1308,572L1424,655L1443,493Z" fill="#29a256" stroke="#29a256"/><path d="M1443,493L1424,655L1543,548Z" fill="#299850" stroke="#299850"/><path d="M1543,548L1424,655L1578,730Z" fill="#06723d" stroke="#06723d"/><path d="M1543,548L1578,730L1720,642Z" fill="#086435" stroke="#086435"/><path d="M1543,548L1720,642L1748,478Z" fill="#2f7a41" stroke="#2f7a41"/><path d="M1748,478L1720,642L1760,783Z" fill="#09512b" stroke="#09512b"/><path d="M-109,648L-128,812L90,676Z" fill="#4a2c2a" stroke="#4a2c2a"/><path d="M90,676L-128,812L51,865Z" fill="#530d1a" stroke="#530d1a"/><path d="M90,676L51,865L237,735Z" fill="#682d20" stroke="#682d20"/><path d="M237,735L51,865L268,841Z" fill="#702118" stroke="#702118"/><path d="M237,735L268,841L332,714Z" fill="#794a2c" stroke="#794a2c"/><path d="M332,714L268,841L394,771Z" fill="#7c502e" stroke="#7c502e"/><path d="M332,714L394,771L548,733Z" fill="#7e7440" stroke="#7e7440"/><path d="M548,733L394,771L474,780Z" fill="#7f7441" stroke="#7f7441"/><path d="M548,733L474,780L721,869Z" fill="#7f794a" stroke="#7f794a"/><path d="M548,733L721,869L653,690Z" fill="#7f8c5b" stroke="#7f8c5b"/><path d="M653,690L721,869L816,724Z" fill="#7f966b" stroke="#7f966b"/><path d="M816,724L721,869L849,837Z" fill="#777e54" stroke="#777e54"/><path d="M816,724L849,837L968,701Z" fill="#6c9152" stroke="#6c9152"/><path d="M968,701L849,837L957,879Z" fill="#647741" stroke="#647741"/><path d="M968,701L957,879L1179,793Z" fill="#50753a" stroke="#50753a"/><path d="M968,701L1179,793L1090,633Z" fill="#46934b" stroke="#46934b"/><path d="M1090,633L1179,793L1242,634Z" fill="#32944e" stroke="#32944e"/><path d="M1242,634L1179,793L1231,845Z" fill="#25703b" stroke="#25703b"/><path d="M1242,634L1231,845L1424,655Z" fill="#107940" stroke="#107940"/><path d="M1424,655L1231,845L1481,828Z" fill="#07512b" stroke="#07512b"/><path d="M1424,655L1481,828L1578,730Z" fill="#004e29" stroke="#004e29"/><path d="M1578,730L1481,828L1606,821Z" fill="#002d18" stroke="#002d18"/><path d="M1578,730L1606,821L1760,783Z" fill="#002313" stroke="#002313"/><path d="M1578,730L1760,783L1720,642Z" fill="#00371d" stroke="#00371d"/><path d="M51,865L957,879L721,869Z" fill="#7f6f45" stroke="#7f6f45"/><path d="M51,865L721,869L268,841Z" fill="#7c4328" stroke="#7c4328"/><path d="M268,841L721,869L474,780Z" fill="#7f6038" stroke="#7f6038"/><path d="M268,841L474,780L394,771Z" fill="#7d512e" stroke="#7d512e"/><path d="M721,869L957,879L849,837Z" fill="#71794b" stroke="#71794b"/><path d="M957,879L1606,821L1481,828Z" fill="#0a4625" stroke="#0a4625"/><path d="M957,879L1481,828L1231,845Z" fill="#24572e" stroke="#24572e"/><path d="M957,879L1231,845L1179,793Z" fill="#3c6333" stroke="#3c6333"/></g></svg>